<svg width="24" height="31" viewBox="0 0 24 31" fill="none" xmlns="http://www.w3.org/2000/svg">
<path d="M9.25682 2.89927C5.65983 2.89927 2.7326 5.82649 2.7326 9.42348C2.7326 10.8609 3.20087 12.19 3.99062 13.2686H5.86134C7.48628 13.2686 8.84564 14.4183 9.1683 15.9454C9.19742 15.9454 9.22654 15.9477 9.25566 15.9477C10.7525 15.9477 12.1328 15.4398 13.2347 14.5883C12.1573 14.3938 11.3384 13.7508 10.9225 12.805C10.4193 13.0543 9.85322 13.1952 9.25449 13.1952C7.17527 13.1952 5.48277 11.5039 5.48277 9.42348C5.48277 9.03559 5.54218 8.66052 5.65167 8.30758C5.24631 7.96977 4.98772 7.45958 4.98772 6.88998C4.98772 5.87191 5.81358 5.04605 6.83165 5.04605C7.43037 5.04605 7.9627 5.33143 8.29933 5.77407C8.60452 5.6937 8.92368 5.65176 9.25333 5.65176C10.8538 5.65176 12.2236 6.65468 12.77 8.06413C13.1683 7.93366 13.6086 7.86727 14.0792 7.86727L15.5888 7.8696C14.8934 5.01926 12.3192 2.89927 9.25682 2.89927Z" fill="url(#paint0_linear_59_2969)"/>
<path d="M8.81537 7.64129C8.81537 8.35766 8.23412 8.93892 7.51775 8.93892C7.27547 8.93892 7.04832 8.87252 6.85496 8.75604C6.79555 8.96804 6.76294 9.19168 6.76294 9.42232C6.76294 10.7805 7.86371 11.8824 9.22306 11.8824C9.62027 11.8824 9.99418 11.7881 10.3262 11.6215C10.2318 11.3466 10.1817 11.0403 10.1817 10.7095C10.184 9.72168 10.6046 9.16489 10.9552 8.87136C11.1206 8.73274 11.3093 8.62092 11.5154 8.53472C11.159 7.61567 10.2668 6.96453 9.2219 6.96453C9.03319 6.96453 8.84915 6.98666 8.6721 7.02743C8.6721 7.03442 8.6721 7.04257 8.67093 7.04956C8.76295 7.22661 8.81537 7.42696 8.81537 7.64129ZM9.77403 9.19984C9.80315 9.26856 9.82062 9.34311 9.82062 9.42232C9.82062 9.50153 9.80431 9.57608 9.77403 9.6448C9.6855 9.86379 9.47234 10.0175 9.2219 10.0175C8.89225 10.0175 8.6255 9.7508 8.6255 9.42116C8.6255 9.09151 8.89225 8.82476 9.2219 8.82476C9.47234 8.82709 9.6855 8.98201 9.77403 9.19984Z" fill="url(#paint1_linear_59_2969)"/>
<path d="M8.67128 7.04921C8.67249 7.04196 8.67249 7.03351 8.67249 7.02626C8.66887 7.02747 8.66524 7.02747 8.66162 7.02868C8.66524 7.03472 8.66766 7.04317 8.67128 7.04921Z" fill="url(#paint2_linear_59_2969)"/>
<path d="M9.77399 9.64596C9.80311 9.57724 9.82058 9.50269 9.82058 9.42348C9.82058 9.34427 9.80427 9.26973 9.77399 9.201C9.80194 9.26973 9.81825 9.34427 9.81825 9.42348C9.81825 9.50269 9.80194 9.57724 9.77399 9.64596Z" fill="url(#paint3_linear_59_2969)"/>
<path d="M13.9429 13.964C13.9312 13.964 13.9208 13.9628 13.9103 13.9628C13.9406 13.9663 13.972 13.9675 14.0035 13.9698V13.964H13.9429Z" fill="url(#paint4_linear_59_2969)"/>
<path d="M21.6646 21.8115C21.6599 21.8278 21.6494 21.8452 21.632 21.8452H19.894C19.3536 21.8452 18.9167 22.2832 18.9167 22.8225C18.9167 23.3618 19.3547 23.7998 19.894 23.7998H20.5708H20.6197C20.8247 23.7893 21.604 23.6216 21.6646 21.8115Z" fill="url(#paint5_linear_59_2969)"/>
<path d="M22.6488 19.2582C22.1095 19.2582 21.6715 19.6961 21.6715 20.2354V21.5913V21.8033C21.6715 21.8068 21.6657 21.8068 21.6645 21.8103C21.604 23.6204 20.8247 23.7882 20.6197 23.7987H21.6319C22.7315 23.7987 23.6273 22.9041 23.6273 21.8033V20.2343C23.6261 19.6961 23.1881 19.2582 22.6488 19.2582Z" fill="url(#paint6_linear_59_2969)"/>
<path d="M21.9127 5.86493C21.9267 5.86842 21.9418 5.87774 21.9418 5.89288V7.38619C21.9418 7.8498 22.3181 8.22604 22.7817 8.22604C23.2453 8.22604 23.6215 7.8498 23.6215 7.38619V6.80494V6.76301C23.611 6.58596 23.4678 5.91618 21.9127 5.86493Z" fill="url(#paint7_linear_59_2969)"/>
<path d="M20.5591 5.8591H21.724H21.9069C21.9103 5.8591 21.9092 5.86376 21.9127 5.86493C23.4677 5.91618 23.611 6.58596 23.6203 6.76301V5.89405C23.6203 4.94937 22.8515 4.18058 21.9069 4.18058H20.5591C20.0955 4.18058 19.7193 4.55682 19.7193 5.02042C19.7193 5.48403 20.0955 5.8591 20.5591 5.8591Z" fill="url(#paint8_linear_59_2969)"/>
<path d="M19.5121 8.42289H16.642C17.017 8.42289 17.356 8.49511 17.6798 8.63256C18.656 9.04375 19.3409 10.0082 19.3409 11.1311V11.1323V11.1335V13.8557H19.5109C21.0112 13.8557 22.2273 12.6396 22.2273 11.1393C22.2285 9.63898 21.0124 8.42289 19.5121 8.42289Z" fill="url(#paint9_linear_59_2969)"/>
<path d="M13.8406 13.8429H13.9012V16.5359C16.9554 16.2599 19.341 13.9442 19.3421 11.1288C19.341 10.0059 18.656 9.04259 17.6811 8.6314C17.3561 8.49395 17.016 8.42173 16.6397 8.42173C16.6374 8.42173 13.9816 8.41824 13.9816 8.41824C12.5488 8.41824 11.2081 9.15441 11.2034 11.1253C11.1988 12.8015 12.2599 13.8429 13.8406 13.8429Z" fill="url(#paint10_linear_59_2969)"/>
<path d="M13.2861 16.5639H8.44977V22.0013H13.2861C16.6304 22.0013 19.3409 19.5668 19.3409 16.5639V11.1265C19.3421 14.1294 16.6304 16.5639 13.2861 16.5639ZM11.2989 20.3449C10.7084 20.3449 10.2296 19.8662 10.2296 19.2756C10.2296 18.6851 10.7084 18.2063 11.2989 18.2063C11.8895 18.2063 12.3683 18.6851 12.3683 19.2756C12.3694 19.865 11.8907 20.3449 11.2989 20.3449Z" fill="url(#paint11_linear_59_2969)"/>
<path d="M8.45088 24.4649V18.2098C8.45088 18.2098 8.44738 17.1661 8.44738 16.5255C8.44738 15.038 7.23829 13.8324 5.7473 13.8324H3.12294C1.63196 13.8324 0.318027 14.8749 0.313367 16.5651C0.308708 18.1143 1.57255 19.1463 3.00995 19.2069V24.4638C3.00995 27.5354 5.44561 30.0258 8.45088 30.0258H13.8918C10.8865 30.027 8.45088 27.5366 8.45088 24.4649Z" fill="url(#paint12_linear_59_2969)"/>
<path d="M1.11241 13.9197L0.919052 13.5726C0.329647 12.2051 0 10.6873 0 9.13694C0 4.09904 4.09904 0 9.13694 0C11.307 0 13.7625 0.776942 15.4142 2.18872C17.0473 3.58419 18.1422 5.51198 18.4964 7.61567L18.5651 8.02336H16.4952L16.4393 7.74263C15.7788 4.44267 12.5056 2.04661 9.1381 2.04661C5.22893 2.04661 2.04777 5.22776 2.04777 9.13694C2.04777 10.3752 2.31102 11.6227 2.76181 12.6687L2.99944 13.0811L2.53467 13.1847C2.12698 13.2756 1.75657 13.4433 1.43274 13.6833L1.11241 13.9197Z" fill="url(#paint13_linear_59_2969)"/>
<defs>
<linearGradient id="paint0_linear_59_2969" x1="2.73309" y1="9.42297" x2="15.7815" y2="9.42297" gradientUnits="userSpaceOnUse">
<stop stop-color="#2B2B65"/>
<stop offset="1" stop-color="#1D70B6"/>
</linearGradient>
<linearGradient id="paint1_linear_59_2969" x1="6.76268" y1="9.42297" x2="11.6819" y2="9.42297" gradientUnits="userSpaceOnUse">
<stop stop-color="#2B2B65"/>
<stop offset="1" stop-color="#1D70B6"/>
</linearGradient>
<linearGradient id="paint2_linear_59_2969" x1="6.69251" y1="7.0378" x2="11.7936" y2="7.0378" gradientUnits="userSpaceOnUse">
<stop stop-color="#2B2B65"/>
<stop offset="1" stop-color="#1D70B6"/>
</linearGradient>
<linearGradient id="paint3_linear_59_2969" x1="6.76269" y1="9.42298" x2="11.6818" y2="9.42298" gradientUnits="userSpaceOnUse">
<stop stop-color="#2B2B65"/>
<stop offset="1" stop-color="#1D70B6"/>
</linearGradient>
<linearGradient id="paint4_linear_59_2969" x1="11.482" y1="13.9661" x2="22.3089" y2="13.9661" gradientUnits="userSpaceOnUse">
<stop stop-color="#2B2B65"/>
<stop offset="1" stop-color="#35A7DF"/>
</linearGradient>
<linearGradient id="paint5_linear_59_2969" x1="21.6077" y1="23.0299" x2="18.9422" y2="22.3583" gradientUnits="userSpaceOnUse">
<stop stop-color="#2B2B65"/>
<stop offset="1" stop-color="#1D70B6"/>
</linearGradient>
<linearGradient id="paint6_linear_59_2969" x1="22.8554" y1="20.6967" x2="21.5697" y2="23.4149" gradientUnits="userSpaceOnUse">
<stop stop-color="#2B2B65"/>
<stop offset="1" stop-color="#1D70B6"/>
</linearGradient>
<linearGradient id="paint7_linear_59_2969" x1="22.9595" y1="5.91307" x2="22.3826" y2="8.20273" gradientUnits="userSpaceOnUse">
<stop stop-color="#2B2B65"/>
<stop offset="1" stop-color="#1D70B6"/>
</linearGradient>
<linearGradient id="paint8_linear_59_2969" x1="20.9553" y1="4.84127" x2="23.2902" y2="5.94567" gradientUnits="userSpaceOnUse">
<stop stop-color="#2B2B65"/>
<stop offset="1" stop-color="#1D70B6"/>
</linearGradient>
<linearGradient id="paint9_linear_59_2969" x1="16.6423" y1="11.1395" x2="22.2285" y2="11.1395" gradientUnits="userSpaceOnUse">
<stop stop-color="#2B2B65"/>
<stop offset="1" stop-color="#35A7DF"/>
</linearGradient>
<linearGradient id="paint10_linear_59_2969" x1="11.203" y1="12.4779" x2="19.3419" y2="12.4779" gradientUnits="userSpaceOnUse">
<stop stop-color="#2B2B65"/>
<stop offset="1" stop-color="#1D70B6"/>
</linearGradient>
<linearGradient id="paint11_linear_59_2969" x1="8.45009" y1="16.5639" x2="19.3416" y2="16.5639" gradientUnits="userSpaceOnUse">
<stop stop-color="#2E4B82"/>
<stop offset="0.2451" stop-color="#30679E"/>
<stop offset="0.7253" stop-color="#35A7DF"/>
</linearGradient>
<linearGradient id="paint12_linear_59_2969" x1="7.10226" y1="27.4385" x2="7.10226" y2="14.7232" gradientUnits="userSpaceOnUse">
<stop stop-color="#006633"/>
<stop offset="1" stop-color="#92BF1F"/>
</linearGradient>
<linearGradient id="paint13_linear_59_2969" x1="0.000221318" y1="6.95973" x2="18.5647" y2="6.95973" gradientUnits="userSpaceOnUse">
<stop stop-color="#2B2B65"/>
<stop offset="1" stop-color="#1D70B6"/>
</linearGradient>
</defs>
</svg>
