<svg width="25" height="34" viewBox="0 0 25 34" fill="none" xmlns="http://www.w3.org/2000/svg">
<g opacity="0.7">
<path d="M2.15221 17.9659C2.58535 17.4671 3.16288 17.0969 3.8349 16.9053C3.15894 15.3053 2.9148 13.5084 3.21275 11.6892L4.34155 11.9767C4.46755 12.0082 4.59619 11.932 4.62769 11.806L5.68954 7.64131C5.72235 7.51531 5.64623 7.38668 5.52022 7.35517L5.18158 7.26855C6.79471 5.26296 9.13631 3.99898 11.6958 3.75484L11.5462 4.34418C11.5133 4.47018 11.5895 4.59881 11.7168 4.63031L15.8815 5.69217C15.9419 5.70792 16.0062 5.69873 16.06 5.66592C16.1138 5.63442 16.1532 5.58192 16.1677 5.52154L16.4249 4.51481C17.2361 4.87051 17.9882 5.33516 18.6667 5.89824L18.0459 6.3957C17.9803 6.4482 17.9475 6.5322 17.9606 6.61489C17.9737 6.69759 18.0288 6.76846 18.1076 6.79865L21.5675 8.14796C21.6462 8.17815 21.7342 8.16502 21.7998 8.11252C21.8654 8.06001 21.8983 7.97601 21.8851 7.89332L21.3247 4.2208C21.3115 4.13811 21.2564 4.06723 21.1777 4.03704C21.0989 4.00685 21.011 4.01998 20.9453 4.07248L20.2234 4.65C19.2456 3.77847 18.1339 3.08675 16.9145 2.59323L17.2308 1.3555C17.2623 1.22949 17.1862 1.10086 17.0602 1.06936L12.8955 0.00750266C12.8351 -0.00824797 12.7708 0.000939996 12.717 0.0337538C12.6631 0.0652551 12.6238 0.117758 12.6093 0.178135L12.2064 1.75582C8.56272 1.88052 5.19208 3.73253 3.12875 6.74352L1.35549 6.29069C1.22948 6.25788 1.10085 6.33532 1.06935 6.46133L0.0075023 10.6261C-0.00824833 10.6864 0.000941138 10.7507 0.033755 10.8046C0.0652562 10.8584 0.117755 10.8978 0.178133 10.9122L1.30692 11.1996C0.880345 13.5727 1.21767 15.9143 2.15221 17.9659ZM13.6686 1.64032L15.6006 2.13384L15.1675 3.83228L15.1084 4.06592L13.1763 3.57371L13.6686 1.64032ZM2.1299 7.92482L4.06198 8.41703L3.56977 10.3491L1.63769 9.8569L2.1299 7.92482Z" fill="url(#paint0_linear_59_3023)"/>
<path d="M16.8146 8.96699C16.7241 8.53385 16.3736 8.2569 15.9247 8.25034C15.3682 8.24246 14.8117 8.24509 14.2552 8.25034C13.9966 8.25297 13.7971 8.37241 13.6855 8.61129C13.6527 8.68217 13.6094 8.69923 13.5385 8.69923C13.0594 8.69661 12.579 8.69661 12.0999 8.69923C12.0068 8.70055 11.9792 8.67036 11.9805 8.57717C11.9844 8.16765 11.9831 7.75945 11.9818 7.34993C11.9805 7.04542 11.8086 6.83016 11.5132 6.7514C11.3413 6.70547 11.1838 6.74878 11.0289 6.82622C9.83972 7.42212 8.64924 8.01802 7.46006 8.6126C7.21462 8.73467 7.10305 8.93287 7.11486 9.20719C7.12536 9.46183 7.25268 9.63115 7.47581 9.7414C8.26728 10.1352 9.05875 10.5329 9.84891 10.9293C10.244 11.1275 10.6364 11.3322 11.0368 11.5199C11.1536 11.575 11.2953 11.6144 11.4213 11.6039C11.781 11.5711 11.9805 11.3322 11.9818 10.9673C11.9831 10.5617 11.9831 10.1562 11.9818 9.75059C11.9818 9.68627 11.9857 9.64296 12.0711 9.64296C12.5711 9.64558 13.0699 9.64296 13.57 9.6469C13.6041 9.6469 13.654 9.67708 13.6684 9.70596C13.7971 9.98028 14.0123 10.1037 14.3116 10.0997C14.5767 10.0958 14.8419 10.0984 15.1057 10.0984C15.1057 10.0958 15.1057 10.0932 15.1057 10.0905C15.4076 10.0905 15.7095 10.1063 16.01 10.0866C16.5088 10.0577 16.9459 9.59439 16.8146 8.96699Z" fill="url(#paint1_linear_59_3023)"/>
<path d="M11.4963 14.0085C11.4425 14.0085 11.3887 14.0111 11.3362 14.0164C10.9858 14.0466 10.7456 14.3025 10.7429 14.6556C10.7403 15.048 10.7403 15.4405 10.7429 15.833C10.7456 16.207 11.0146 16.4682 11.3887 16.4682C11.8914 16.4682 12.3954 16.4682 12.8981 16.4682C12.6356 15.9603 12.4939 15.3578 12.4952 14.6845C12.4965 14.4495 12.5136 14.2251 12.5464 14.0098C12.1972 14.0085 11.8468 14.0085 11.4963 14.0085Z" fill="url(#paint2_linear_59_3023)"/>
<path d="M16.0614 11.1983L16.6874 11.1996C16.5719 11.0658 16.4013 10.9778 16.2202 10.9791C15.2108 10.9844 14.2015 10.9791 13.1934 10.9818C12.8351 10.9831 12.5726 11.2482 12.57 11.6065C12.5673 12.0055 12.5673 12.4046 12.57 12.8036C12.5713 12.9887 12.633 13.1435 12.7406 13.2538C13.2249 11.957 14.4089 11.1983 16.0614 11.1983Z" fill="url(#paint3_linear_59_3023)"/>
<path d="M7.73448 16.4695C8.03243 16.4643 8.33038 16.4682 8.62964 16.4682C8.92759 16.4682 9.22554 16.4682 9.5248 16.4682C9.89757 16.4682 10.1627 16.2162 10.1693 15.8434C10.1758 15.4444 10.1745 15.0454 10.1693 14.6477C10.164 14.2894 9.93038 14.0453 9.57074 14.0177C9.45392 14.0085 9.33711 14.0098 9.21898 14.0098C8.70314 14.0124 8.18731 14.0072 7.67148 14.0216C7.35384 14.0308 7.11889 14.2946 7.11758 14.611C7.11627 15.027 7.12545 15.4418 7.11495 15.8579C7.10576 16.2031 7.40634 16.4748 7.73448 16.4695Z" fill="url(#paint4_linear_59_3023)"/>
<path d="M21.6619 11.9517H18.7336C19.1156 11.9517 19.4621 12.0252 19.7929 12.1657C20.7891 12.5857 21.4887 13.5688 21.4887 14.716V14.7173V14.7186V17.4973H21.6619C23.1924 17.4973 24.4341 16.2556 24.4341 14.7252C24.4341 13.1921 23.1924 11.9517 21.6619 11.9517Z" fill="url(#paint5_linear_59_3023)"/>
<path d="M15.8736 17.4815H15.9353V20.23C19.0526 19.9478 21.4861 17.5852 21.4887 14.712C21.4874 13.5662 20.7891 12.5831 19.7929 12.1644C19.4608 12.0239 19.1143 11.9504 18.7297 11.9504C18.7271 11.9504 16.018 11.9478 16.018 11.9478C14.5558 11.9478 13.1881 12.6986 13.1829 14.7107C13.1763 16.4197 14.2592 17.4815 15.8736 17.4815Z" fill="url(#paint6_linear_59_3023)"/>
<path d="M15.3079 20.2589H10.3727V25.8084H15.3079C18.7205 25.8084 21.4874 23.3237 21.4874 20.2589V14.7094C21.4874 17.7755 18.7205 20.2589 15.3079 20.2589ZM13.28 24.1178C12.6775 24.1178 12.1879 23.6295 12.1879 23.0257C12.1879 22.422 12.6762 21.9337 13.28 21.9337C13.8825 21.9337 14.372 22.422 14.372 23.0257C14.372 23.6295 13.8825 24.1178 13.28 24.1178Z" fill="url(#paint7_linear_59_3023)"/>
<path d="M10.3728 28.3219V21.939C10.3728 21.939 10.3702 20.8745 10.3702 20.2208C10.3702 18.7035 9.13637 17.4723 7.61512 17.4723H4.93621C3.41496 17.4723 2.07353 18.5355 2.06959 20.2615C2.06565 21.8418 3.35458 22.8958 4.8207 22.9575V28.3232C4.8207 31.4576 7.30668 34 10.3728 34H15.9249C12.8588 33.9987 10.3728 31.4576 10.3728 28.3219Z" fill="url(#paint8_linear_59_3023)"/>
</g>
<defs>
<linearGradient id="paint0_linear_59_3023" x1="0.0037012" y1="8.98308" x2="21.8924" y2="8.98308" gradientUnits="userSpaceOnUse">
<stop stop-color="#2B2B65"/>
<stop offset="1" stop-color="#35A7DF"/>
</linearGradient>
<linearGradient id="paint1_linear_59_3023" x1="7.11566" y1="9.16915" x2="16.8402" y2="9.16915" gradientUnits="userSpaceOnUse">
<stop stop-color="#2B2B65"/>
<stop offset="1" stop-color="#35A7DF"/>
</linearGradient>
<linearGradient id="paint2_linear_59_3023" x1="10.7413" y1="15.2384" x2="12.8986" y2="15.2384" gradientUnits="userSpaceOnUse">
<stop stop-color="#2B2B65"/>
<stop offset="1" stop-color="#35A7DF"/>
</linearGradient>
<linearGradient id="paint3_linear_59_3023" x1="12.5687" y1="12.1165" x2="16.6883" y2="12.1165" gradientUnits="userSpaceOnUse">
<stop stop-color="#2B2B65"/>
<stop offset="1" stop-color="#35A7DF"/>
</linearGradient>
<linearGradient id="paint4_linear_59_3023" x1="7.11526" y1="15.2397" x2="10.1743" y2="15.2397" gradientUnits="userSpaceOnUse">
<stop stop-color="#2B2B65"/>
<stop offset="1" stop-color="#35A7DF"/>
</linearGradient>
<linearGradient id="paint5_linear_59_3023" x1="18.7346" y1="14.7246" x2="24.4352" y2="14.7246" gradientUnits="userSpaceOnUse">
<stop stop-color="#2B2B65"/>
<stop offset="1" stop-color="#35A7DF"/>
</linearGradient>
<linearGradient id="paint6_linear_59_3023" x1="13.1843" y1="16.089" x2="21.4904" y2="16.089" gradientUnits="userSpaceOnUse">
<stop stop-color="#2B2B65"/>
<stop offset="1" stop-color="#35A7DF"/>
</linearGradient>
<linearGradient id="paint7_linear_59_3023" x1="10.3746" y1="20.259" x2="21.4896" y2="20.259" gradientUnits="userSpaceOnUse">
<stop stop-color="#2B2B65"/>
<stop offset="1" stop-color="#35A7DF"/>
</linearGradient>
<linearGradient id="paint8_linear_59_3023" x1="2.07192" y1="25.7363" x2="15.9277" y2="25.7363" gradientUnits="userSpaceOnUse">
<stop stop-color="#2B2B65"/>
<stop offset="1" stop-color="#35A7DF"/>
</linearGradient>
</defs>
</svg>
