<svg width="25" height="34" viewBox="0 0 25 34" fill="none" xmlns="http://www.w3.org/2000/svg">
<g opacity="0.7">
<path d="M21.3452 9.98077H18.1539C18.5701 9.98077 18.9468 10.0608 19.3078 10.2131C20.3935 10.67 21.1549 11.7425 21.1549 12.9909V12.9922V12.9935V16.0207H21.3439C23.0124 16.0207 24.3645 14.6686 24.3645 13.0001C24.3645 11.3316 23.0137 9.98077 21.3452 9.98077Z" fill="url(#paint0_linear_59_3038)"/>
<path d="M15.0401 16.0063H15.1071V19.0006C18.5031 18.6934 21.1549 16.1191 21.1562 12.9896C21.1549 11.7412 20.3935 10.67 19.3091 10.2131C18.9468 10.0608 18.5688 9.98077 18.1513 9.98077C18.1487 9.98077 15.1963 9.97683 15.1963 9.97683C13.6027 9.97683 12.1127 10.7947 12.1074 12.9869C12.1022 14.8484 13.2823 16.0063 15.0401 16.0063Z" fill="url(#paint1_linear_59_3038)"/>
<path d="M14.4245 19.0321H9.04749V25.0773H14.4245C18.1422 25.0773 21.1562 22.3704 21.1562 19.0321V12.9869C21.1562 16.3252 18.1422 19.0321 14.4245 19.0321ZM12.2151 23.2342C11.5588 23.2342 11.0258 22.7012 11.0258 22.0449C11.0258 21.3885 11.5588 20.8555 12.2151 20.8555C12.8715 20.8555 13.4045 21.3885 13.4045 22.0449C13.4045 22.7025 12.8715 23.2342 12.2151 23.2342Z" fill="url(#paint2_linear_59_3038)"/>
<path d="M9.04742 27.8157V20.8621C9.04742 20.8621 9.04349 19.7029 9.04349 18.9901C9.04349 17.3374 7.69925 15.9958 6.04125 15.9958H3.12302C1.46502 15.9958 0.00526564 17.1549 1.46754e-05 19.0334C-0.00523629 20.7558 1.39939 21.9031 2.99831 21.97V27.8157C2.99831 31.2314 5.70649 34 9.04742 34H15.0965C11.7556 34 9.04742 31.2314 9.04742 27.8157Z" fill="url(#paint3_linear_59_3038)"/>
<path d="M18.5083 3.13877C18.3455 2.82765 18.1709 2.36162 18.0016 1.91004C17.8178 1.4217 17.6288 0.916293 17.4358 0.552664C17.2441 0.190347 16.9186 0 16.4972 0C11.9669 0.00131274 7.43665 0.00131274 2.90769 0C2.50205 0 2.17648 0.189035 1.99269 0.531661C1.79316 0.903166 1.59888 1.42039 1.40984 1.91923C1.23656 2.37737 1.05802 2.85127 0.891302 3.16896C0.81385 3.31598 0.770539 3.48927 0.769226 3.6573C0.76135 4.23884 0.761347 4.82958 0.766598 5.41112C0.775787 6.3668 1.15255 7.18857 1.88637 7.85544L1.90738 7.87513V7.90402C1.90607 10.112 1.90606 12.3214 1.90606 14.5294V15.367C2.24869 15.2711 2.611 15.2225 2.98513 15.2225H3.83842V8.76649L3.91192 8.77568C4.4764 8.84525 5.03302 8.79274 5.56599 8.61946C6.11603 8.44093 6.59911 8.1495 7.00343 7.75305L7.04938 7.70842L7.09532 7.75305C7.80683 8.4488 8.68768 8.80193 9.71031 8.80193C10.7395 8.80062 11.6177 8.44749 12.3279 7.75174L12.3726 7.7071L12.4185 7.75042C13.2678 8.56301 14.3075 8.90564 15.5087 8.77174L15.5809 8.76386V9.24039L17.5133 9.2417V7.87645L17.5342 7.85676C18.2759 7.17938 18.6527 6.34317 18.6553 5.37305L18.6566 5.04355C18.658 4.59328 18.6593 4.13907 18.6514 3.69012C18.6448 3.49977 18.5949 3.30417 18.5083 3.13877ZM6.0832 5.41637C6.06088 6.04124 5.76552 6.48494 5.18003 6.77112C4.91092 6.90239 4.64444 6.96803 4.37927 6.96803C4.05896 6.96803 3.74128 6.8722 3.43147 6.67923C2.96282 6.38911 2.72258 5.99398 2.69764 5.47282C2.68451 5.1932 2.68714 4.9149 2.68977 4.61954L2.7554 4.61822L2.68977 4.61691V4.55127H6.08846V4.6156C6.08977 4.86371 6.09239 5.14463 6.0832 5.41637ZM9.89015 6.94965C9.8337 6.9549 9.77857 6.95622 9.72343 6.95622C8.88721 6.95622 8.17703 6.4193 8.03919 5.6566C8.01425 5.52008 8.01294 5.3678 8.01163 5.20764C8.01163 5.15907 8.01163 5.11444 8.01031 5.07112C8.00769 4.92147 8.00768 4.7705 8.00768 4.61954V4.55521H11.409V5.3783C11.4103 6.18695 10.7421 6.87877 9.89015 6.94965ZM3.21224 2.69243L3.23587 2.60973C3.25556 2.53884 3.27525 2.46664 3.29494 2.39444C3.33957 2.22903 3.39602 2.02425 3.44197 1.89035L3.45772 1.84703H3.50366C7.18459 1.85097 11.2397 1.85097 15.9038 1.84834H15.9511L15.9655 1.89297C16.0062 2.02162 16.0535 2.20147 16.0915 2.34456C16.1165 2.44039 16.1388 2.52703 16.1624 2.60973L16.1847 2.69243H3.21224ZM16.7295 4.61954C16.7295 4.71537 16.7295 4.80988 16.7269 4.90571C16.7243 4.98448 16.7243 5.06456 16.7243 5.14463C16.7243 5.34548 16.7243 5.53583 16.6888 5.70386C16.5339 6.44818 15.8448 6.95622 15.0177 6.95622C14.9652 6.95622 14.9127 6.95359 14.8602 6.94965C14.0345 6.88664 13.365 6.22502 13.3361 5.44525C13.3256 5.16826 13.3282 4.87683 13.3295 4.61954V4.55521H16.7282V4.61954H16.7295Z" fill="url(#paint4_linear_59_3038)"/>
<path d="M11.3289 12.815C11.3315 11.8803 11.5717 11.1045 12.0443 10.5059C11.6833 10.2748 11.2488 10.1527 10.7815 10.1527H8.59839C7.38541 10.1527 6.46781 11.0205 6.46518 12.1704C6.46387 12.9384 6.46387 13.7076 6.46387 14.4756V15.0086C7.62433 15.1989 8.93707 15.7542 9.3939 17.1772L14.0502 17.3085V16.5038C12.2321 16.2806 11.3236 14.7591 11.3289 12.815ZM11.0296 15.4615H8.38835V15.1293C8.38835 14.1514 8.38835 13.1747 8.38966 12.1967C8.38966 12.0575 8.42378 11.9985 8.63644 11.9985H10.8051C10.9902 11.9985 11.0283 12.068 11.0283 12.173C11.0309 13.0788 11.0309 13.9846 11.0296 14.8917V15.4615Z" fill="url(#paint5_linear_59_3038)"/>
</g>
<defs>
<linearGradient id="paint0_linear_59_3038" x1="18.155" y1="13.0008" x2="24.3658" y2="13.0008" gradientUnits="userSpaceOnUse">
<stop stop-color="#2B2B65"/>
<stop offset="1" stop-color="#35A7DF"/>
</linearGradient>
<linearGradient id="paint1_linear_59_3038" x1="12.109" y1="14.4888" x2="21.158" y2="14.4888" gradientUnits="userSpaceOnUse">
<stop stop-color="#2B2B65"/>
<stop offset="1" stop-color="#35A7DF"/>
</linearGradient>
<linearGradient id="paint2_linear_59_3038" x1="9.04953" y1="19.0322" x2="21.1587" y2="19.0322" gradientUnits="userSpaceOnUse">
<stop stop-color="#2B2B65"/>
<stop offset="1" stop-color="#35A7DF"/>
</linearGradient>
<linearGradient id="paint3_linear_59_3038" x1="0.00255279" y1="24.998" x2="15.0996" y2="24.998" gradientUnits="userSpaceOnUse">
<stop stop-color="#2B2B65"/>
<stop offset="1" stop-color="#35A7DF"/>
</linearGradient>
<linearGradient id="paint4_linear_59_3038" x1="0.765965" y1="7.68361" x2="18.6612" y2="7.68361" gradientUnits="userSpaceOnUse">
<stop stop-color="#2B2B65"/>
<stop offset="1" stop-color="#35A7DF"/>
</linearGradient>
<linearGradient id="paint5_linear_59_3038" x1="6.46515" y1="13.7307" x2="14.0517" y2="13.7307" gradientUnits="userSpaceOnUse">
<stop stop-color="#2B2B65"/>
<stop offset="1" stop-color="#35A7DF"/>
</linearGradient>
</defs>
</svg>
