<svg width="25" height="35" viewBox="0 0 25 35" fill="none" xmlns="http://www.w3.org/2000/svg">
<g opacity="0.7">
<path d="M16.7542 10.2989C16.2247 9.96497 15.6552 9.70154 15.0432 9.59643C14.813 9.55651 14.8197 9.58313 14.7106 9.39154C14.6174 9.22922 14.5629 9.0363 14.4777 8.86866C14.3128 8.54402 14.1185 8.23535 13.895 7.94929C13.4493 7.37586 12.8945 6.8889 12.2665 6.52302C12.0762 6.41126 11.878 6.31147 11.6757 6.22366C10.3067 5.62627 8.78328 5.59168 7.38494 6.12787C7.27318 6.17044 7.16408 6.21568 7.06031 6.26357L7.03237 6.27555C7.00975 6.28486 6.98846 6.29417 6.96717 6.30482C6.89 6.34207 6.8155 6.38066 6.74232 6.41924C6.53742 6.52701 6.34052 6.64542 6.15824 6.77049C6.06644 6.83302 5.9733 6.9022 5.87219 6.9807C5.77772 7.05388 5.68193 7.13504 5.58746 7.21886C4.89827 7.83487 4.38205 8.6132 4.05076 9.53257C4.0481 9.54055 4.04544 9.54853 4.04278 9.55652C3.98423 9.56317 3.92437 9.57115 3.8645 9.58046C3.77668 9.59377 3.6902 9.61106 3.60372 9.62969C2.97839 9.76274 2.40495 10.0129 1.89804 10.3708C1.83684 10.4133 1.77829 10.4573 1.71975 10.5038C1.65988 10.5504 1.60135 10.5983 1.54414 10.6488C0.459793 11.5935 -0.0976786 12.9945 0.0140818 14.4926C0.0965717 15.6049 0.582191 16.6227 1.42971 17.3531C1.63593 17.5314 1.85946 17.6897 2.09229 17.8321C2.34242 17.9838 2.57393 18.2392 2.89058 18.21C3.22586 18.178 3.45204 17.8986 3.73543 17.7536C4.28758 17.4689 4.91424 17.3585 5.52626 17.2986C6.11434 17.24 6.81284 17.3398 7.37829 17.1921C7.31975 17.1123 7.18936 17.087 7.08825 17.0445C6.43232 16.7677 5.67927 16.805 4.98476 16.6799C3.63166 16.4378 2.15881 15.8417 2.00581 14.2864C1.88074 13.0104 2.7868 11.8223 4.06805 11.5815C4.30754 11.5363 4.58961 11.5363 4.87034 11.5363H4.9515C5.15772 11.5363 5.65133 11.4684 5.76841 10.8524C5.93605 9.9663 6.32189 9.24784 6.91529 8.71831C6.99512 8.6478 7.0776 8.57994 7.16276 8.51608C7.39692 8.34312 7.65769 8.19144 7.93975 8.06505C8.95358 7.61401 10.1018 7.64727 11.0917 8.15951C12.0988 8.67973 12.8053 9.62171 13.0302 10.7433C13.1233 11.209 13.3242 11.4578 13.8032 11.515C14.4844 11.5961 15.2547 11.4338 15.8694 11.8237L16.1542 12.0019L16.3165 11.9833C16.3817 11.9753 16.4482 11.97 16.516 11.966C16.5812 11.962 16.6464 11.9594 16.7129 11.958L16.7475 11.9567C16.7675 11.9567 16.7861 11.9554 16.8048 11.9554C16.8048 11.9554 18.9482 11.958 18.9495 11.958C18.7845 11.958 18.2949 11.3806 18.1499 11.2569C17.7574 10.9203 17.2039 10.5836 16.7542 10.2989Z" fill="url(#paint0_linear_59_3010)"/>
<path d="M12.2186 11.9128C12.196 11.8862 12.1707 11.8569 12.1427 11.829L11.8168 11.503C11.3724 11.0586 10.928 10.6142 10.4836 10.1712C9.87295 9.56183 9.01878 9.56049 8.40942 10.1659C7.98632 10.585 7.56589 11.0054 7.14546 11.4272L6.70507 11.8689C6.67181 11.9021 6.63854 11.9381 6.61992 11.9594L6.52944 12.0565C6.39107 12.2055 6.39373 12.4357 6.53476 12.582L7.16941 13.2379C7.24125 13.3111 7.33837 13.3537 7.44082 13.3537C7.54194 13.3524 7.64172 13.3138 7.7149 13.2406L8.59169 12.3572V15.3787C8.59169 15.5902 8.76332 15.7605 8.97354 15.7605H9.849C10.0605 15.7605 10.2308 15.5889 10.2308 15.3787V12.2507L11.1236 13.1515C11.1954 13.2233 11.2926 13.2646 11.3937 13.2646H11.395C11.4961 13.2646 11.5933 13.2246 11.6651 13.1528L12.2891 12.5301C12.4315 12.3878 12.4394 12.1589 12.3051 12.0073L12.2186 11.9128Z" fill="url(#paint1_linear_59_3010)"/>
<path d="M23.8337 7.22019C23.4319 7.18959 23.0327 7.13238 22.6469 7.07517L22.5351 7.0592C22.3635 7.03392 22.1919 6.89954 22.12 6.7319C22.0163 6.49109 21.9165 6.25027 21.8167 6.00812C21.7116 5.754 21.6065 5.49988 21.4974 5.24709C21.4096 5.04219 21.4348 4.85193 21.5719 4.68163C21.8632 4.31841 22.1546 3.94587 22.4287 3.5933C22.5325 3.46025 22.5285 3.39106 22.4088 3.27132C21.8992 2.75776 21.3869 2.24685 20.8747 1.73595C20.7696 1.63217 20.7017 1.60689 20.5527 1.72397L20.5128 1.75457C20.1722 2.01934 19.8196 2.29475 19.479 2.57016C19.2981 2.71651 19.1025 2.74046 18.8816 2.64466C18.4146 2.44243 17.933 2.24419 17.4527 2.05393C17.3702 2.02067 17.1174 1.92221 17.0815 1.58161C17.0549 1.3368 17.0256 1.09332 16.9963 0.849845C16.9711 0.646281 16.9458 0.442717 16.9232 0.237823C16.9006 0.0355902 16.826 0.000997861 16.6691 0.000997861C15.9506 -0.00033262 15.2335 -0.00033262 14.515 0.000997861C14.3607 0.000997861 14.2888 0.0355906 14.2649 0.241815C14.2409 0.44937 14.2156 0.656925 14.1904 0.86448C14.1598 1.11062 14.1292 1.35543 14.1025 1.60157C14.0693 1.91955 13.8285 2.01535 13.7486 2.04728C13.2444 2.24951 12.7521 2.45307 12.2851 2.65265C12.0789 2.74179 11.8886 2.71784 11.7197 2.58213C11.3671 2.29874 11.0185 2.02732 10.6313 1.7253C10.4969 1.62019 10.4264 1.62285 10.3093 1.73994C9.79578 2.24951 9.28488 2.76175 8.7753 3.27531C8.65822 3.39373 8.65423 3.46291 8.76067 3.59862L8.79659 3.64386C9.0374 3.95386 9.2862 4.27317 9.53633 4.58451C10.5887 4.68163 11.4682 4.93575 12.164 5.22181C12.18 5.20584 12.1946 5.18854 12.2106 5.17258C13.118 4.26652 14.3181 3.76626 15.5914 3.76626C15.5953 3.76626 15.598 3.76626 15.602 3.76626C18.2377 3.77158 20.3851 5.92031 20.3891 8.55599C20.3904 9.53124 20.099 10.4639 19.5562 11.2542C19.95 11.5443 20.3811 11.974 20.3811 11.974H21.4668C21.4761 11.9341 21.4881 11.8942 21.5067 11.8516C21.7089 11.3859 21.9098 10.9003 22.1041 10.408C22.1905 10.1912 22.3409 10.0727 22.5644 10.0488C22.7254 10.0315 22.885 10.0102 23.0447 9.98892C23.3015 9.95433 23.5663 9.91973 23.8337 9.89978C24.0133 9.88647 24.0971 9.83725 24.153 9.75742V7.36388C24.0958 7.28272 24.0133 7.23349 23.8337 7.22019Z" fill="url(#paint2_linear_59_3010)"/>
<path d="M22.2517 12.7776H19.3712C19.7477 12.7776 20.087 12.8494 20.413 12.9878C21.3922 13.4003 22.0801 14.3675 22.0801 15.4958V15.4971V15.4984V18.2312H22.2504C23.7565 18.2312 24.9765 17.0112 24.9765 15.5051C24.9779 13.9977 23.7578 12.7776 22.2517 12.7776Z" fill="url(#paint3_linear_59_3010)"/>
<path d="M16.5599 18.2166H16.6197V20.9202C19.6852 20.6434 22.0787 18.3191 22.0814 15.4931C22.08 14.3662 21.3935 13.3989 20.4143 12.9865C20.087 12.8481 19.7464 12.7763 19.3698 12.7763C19.3672 12.7763 16.7022 12.7736 16.7022 12.7736C15.264 12.7736 13.9189 13.512 13.9135 15.4905C13.9082 17.1709 14.9726 18.2166 16.5599 18.2166Z" fill="url(#paint4_linear_59_3010)"/>
<path d="M16.0037 20.9481H11.1501V26.4057H16.0051C19.3619 26.4057 22.0827 23.963 22.0827 20.9481V15.4905C22.0814 18.504 19.3606 20.9481 16.0037 20.9481ZM14.0094 24.7426C13.416 24.7426 12.9357 24.2623 12.9357 23.6689C12.9357 23.0755 13.416 22.5952 14.0094 22.5952C14.6028 22.5952 15.083 23.0755 15.083 23.6689C15.083 24.2623 14.6014 24.7426 14.0094 24.7426Z" fill="url(#paint5_linear_59_3010)"/>
<path d="M11.1501 28.8778V22.6006C11.1501 22.6006 11.1475 21.5535 11.1475 20.9108C11.1475 19.418 9.93409 18.2086 8.4373 18.2086H5.80294C4.30615 18.2086 2.98764 19.2544 2.98365 20.9508C2.97966 22.5048 4.24628 23.5412 5.68985 23.6024V28.8791C5.68985 31.9618 8.13528 34.4618 11.1501 34.4618H16.6104C13.5942 34.4605 11.1501 31.9605 11.1501 28.8778Z" fill="url(#paint6_linear_59_3010)"/>
</g>
<defs>
<linearGradient id="paint0_linear_59_3010" x1="0.00320431" y1="11.9809" x2="18.9533" y2="11.9809" gradientUnits="userSpaceOnUse">
<stop stop-color="#2B2B65"/>
<stop offset="1" stop-color="#35A7DF"/>
</linearGradient>
<linearGradient id="paint1_linear_59_3010" x1="6.42832" y1="12.7368" x2="12.4022" y2="12.7368" gradientUnits="userSpaceOnUse">
<stop stop-color="#2B2B65"/>
<stop offset="1" stop-color="#35A7DF"/>
</linearGradient>
<linearGradient id="paint2_linear_59_3010" x1="8.68664" y1="5.9871" x2="24.1561" y2="5.9871" gradientUnits="userSpaceOnUse">
<stop stop-color="#2B2B65"/>
<stop offset="1" stop-color="#35A7DF"/>
</linearGradient>
<linearGradient id="paint3_linear_59_3010" x1="19.3722" y1="15.5045" x2="24.9777" y2="15.5045" gradientUnits="userSpaceOnUse">
<stop stop-color="#2B2B65"/>
<stop offset="1" stop-color="#35A7DF"/>
</linearGradient>
<linearGradient id="paint4_linear_59_3010" x1="13.9149" y1="16.847" x2="22.083" y2="16.847" gradientUnits="userSpaceOnUse">
<stop stop-color="#2B2B65"/>
<stop offset="1" stop-color="#35A7DF"/>
</linearGradient>
<linearGradient id="paint5_linear_59_3010" x1="11.152" y1="20.9482" x2="22.0849" y2="20.9482" gradientUnits="userSpaceOnUse">
<stop stop-color="#2B2B65"/>
<stop offset="1" stop-color="#35A7DF"/>
</linearGradient>
<linearGradient id="paint6_linear_59_3010" x1="2.98595" y1="26.3354" x2="16.6132" y2="26.3354" gradientUnits="userSpaceOnUse">
<stop stop-color="#2B2B65"/>
<stop offset="1" stop-color="#35A7DF"/>
</linearGradient>
</defs>
</svg>
