<svg width="25" height="32" viewBox="0 0 25 32" fill="none" xmlns="http://www.w3.org/2000/svg">
<g opacity="0.7">
<path d="M19.8617 9.65545H16.8929C17.28 9.65545 17.6305 9.72994 17.9663 9.8716C18.9763 10.2966 19.6846 11.2943 19.6846 12.4557V12.4569V12.4581V15.2743H19.8604C21.4126 15.2743 22.6705 14.0164 22.6705 12.4642C22.6705 10.9121 21.4138 9.65545 19.8617 9.65545Z" fill="url(#paint0_linear_59_2995)"/>
<path d="M13.9962 15.2608H14.0585V18.0464C17.2178 17.7606 19.6846 15.3658 19.6859 12.4545C19.6846 11.2931 18.9763 10.2966 17.9676 9.8716C17.6305 9.72994 17.2788 9.65545 16.8905 9.65545C16.8881 9.65545 14.1415 9.65178 14.1415 9.65178C12.659 9.65178 11.2729 10.4126 11.268 12.452C11.2631 14.1837 12.361 15.2608 13.9962 15.2608Z" fill="url(#paint1_linear_59_2995)"/>
<path d="M13.4234 18.0757H8.42126V23.6994H13.4234C16.8819 23.6994 19.6858 21.1813 19.6858 18.0757V12.452C19.6858 15.5576 16.8819 18.0757 13.4234 18.0757ZM11.3681 21.9848C10.7574 21.9848 10.2616 21.489 10.2616 20.8784C10.2616 20.2678 10.7574 19.772 11.3681 19.772C11.9787 19.772 12.4745 20.2678 12.4745 20.8784C12.4745 21.4902 11.9787 21.9848 11.3681 21.9848Z" fill="url(#paint2_linear_59_2995)"/>
<path d="M8.42138 26.2469V19.7781C8.42138 19.7781 8.41773 18.6998 8.41773 18.0366C8.41773 16.4991 7.1672 15.2511 5.62481 15.2511H2.91003C1.36764 15.2511 0.00965925 16.3294 0.00477439 18.0769C-0.000110465 19.6792 1.30659 20.7465 2.79402 20.8088V26.2469C2.79402 29.4245 5.31339 32 8.42138 32H14.0487C10.9408 32 8.42138 29.4245 8.42138 26.2469Z" fill="url(#paint3_linear_59_2995)"/>
<path d="M17.4436 4.32241C16.2529 3.75576 15.0097 3.61776 13.7494 3.91452C12.4952 4.21005 11.4743 4.81456 10.6964 5.71825C10.8148 6.30566 10.8502 6.86986 10.8002 7.42063C11.0945 7.5977 11.329 7.87614 11.4718 8.23396L11.5024 8.15336C11.8614 7.20569 12.5721 6.46075 13.5039 6.05409C14.4357 5.64742 15.4652 5.63399 16.4068 6.01501C17.3556 6.39969 18.0896 7.13731 18.4718 8.0923C18.6049 8.42202 18.688 8.76274 18.7234 9.1059L19.8616 9.10712C20.1534 9.10712 20.4368 9.14498 20.7079 9.21459C20.6798 8.60887 20.5516 8.00925 20.3208 7.41819C19.7724 6.01135 18.804 4.96965 17.4436 4.32241Z" fill="url(#paint4_linear_59_2995)"/>
<path d="M17.4107 3.42725C17.5132 3.46878 17.6183 3.49198 17.7233 3.49808C18.1238 3.52129 18.511 3.29658 18.6832 2.9058C18.7161 2.8313 18.7454 2.75559 18.7748 2.67865C18.8102 2.58584 18.8444 2.49913 18.8834 2.41853C19.1338 1.90318 19.0398 1.4208 18.6172 1.05932L18.5818 1.02879L18.2362 0.888348L18.1886 0.885906C17.639 0.852933 17.2385 1.12893 17.0614 1.66016C17.0321 1.7493 16.9942 1.83845 16.9539 1.93249C16.9209 2.01065 16.888 2.08758 16.8587 2.16696C16.6706 2.67254 16.9136 3.22575 17.4107 3.42725Z" fill="url(#paint5_linear_59_2995)"/>
<path d="M9.43856 3.72034C9.7805 3.84491 10.0736 4.0806 10.2739 4.40911C10.3313 4.42132 10.3887 4.42987 10.4448 4.43353C10.7465 4.45185 11.0261 4.34561 11.2252 4.12823C11.5207 3.80461 11.5708 3.31856 11.3436 2.97052C11.1666 2.69819 10.9748 2.44051 10.7721 2.20482C10.5169 1.90684 10.087 1.81159 9.706 1.95935C9.65104 2.13277 9.56678 2.30374 9.45077 2.4686C9.32376 2.64812 9.20409 2.82519 9.09174 2.99861C9.09296 3.00471 9.09417 3.01082 9.09539 3.01692C9.16378 3.2917 9.29079 3.52129 9.43856 3.72034Z" fill="url(#paint6_linear_59_2995)"/>
<path d="M12.9837 2.32083C13.0838 2.71162 13.4453 2.99739 13.8654 3.02303C13.8715 3.02303 13.8764 3.02425 13.8825 3.02425C14.3014 3.04135 14.6824 2.78489 14.8521 2.36846L14.8729 2.29641C14.8888 2.23779 14.9181 2.12666 14.8985 2.00576L14.8729 1.84212C14.8289 1.56612 14.7849 1.28158 14.6995 1.00314C14.5615 0.551292 14.0669 0.282624 13.5723 0.393755C13.0801 0.503664 12.7528 0.95185 12.8115 1.43789C12.8457 1.71389 12.9018 2.00332 12.9837 2.32083Z" fill="url(#paint7_linear_59_2995)"/>
<path d="M22.3675 5.15405L22.4066 5.11375L22.4273 5.06124C22.613 4.60328 22.5336 4.15754 22.2136 3.87056C21.8876 3.57746 21.4247 3.53106 21.0608 3.75454C20.8129 3.90719 20.5748 4.07083 20.3513 4.24303C20.013 4.50314 19.8933 4.95255 20.0545 5.36288C20.1962 5.72314 20.5198 5.96372 20.863 5.98448C20.9204 5.98814 20.979 5.98448 21.0364 5.97593C21.6775 5.86968 22.1098 5.4215 22.3675 5.15405Z" fill="url(#paint8_linear_59_2995)"/>
<path d="M23.844 7.76135C23.6364 7.48657 23.3042 7.34369 22.9562 7.38033C22.7278 7.40353 22.486 7.44017 22.2149 7.48902C21.6886 7.58549 21.343 8.05444 21.4126 8.57956C21.4749 9.05706 21.862 9.40754 22.3273 9.43563C22.3798 9.43929 22.4335 9.43807 22.4885 9.43197C22.7291 9.40754 22.9831 9.36969 23.2664 9.31595C23.5754 9.25733 23.8269 9.06316 23.9564 8.78106L23.9613 8.76885C24.1005 8.42202 24.0577 8.04589 23.844 7.76135Z" fill="url(#paint9_linear_59_2995)"/>
<path d="M10.7184 12.4496C10.7208 11.7584 10.86 11.193 11.0969 10.735C11.1275 10.0633 11.0175 9.35503 10.7599 8.58933C10.6182 8.16801 10.3044 7.95796 9.90258 8.00193C9.93433 7.87004 9.95754 7.73692 9.97708 7.60259C10.021 7.30461 10.0357 7.00053 10.0198 6.69034C10.0027 6.32398 9.94655 5.94906 9.84763 5.56072C9.80977 5.41051 9.76458 5.25297 9.70596 5.06491C9.54598 4.54955 9.10513 4.31019 8.58367 4.45674C8.05977 4.60329 7.6177 4.77548 7.22935 4.98675C7.30995 4.70587 7.41497 4.42499 7.54808 4.13678C7.86316 3.45168 8.2747 2.75559 8.80348 2.0082C9.06116 1.64428 9.04285 1.27303 8.75342 0.964065C8.60566 0.806529 8.40538 0.721044 8.19044 0.728371C7.96574 0.736919 7.75935 0.845608 7.6067 1.03367C7.41009 1.27792 7.23545 1.54292 7.08646 1.77251C6.72498 2.32938 6.43067 2.85329 6.19619 3.35887C6.15711 3.29903 6.11804 3.23919 6.07652 3.18057C5.59047 2.49303 4.90415 1.93615 3.97603 1.47575C3.5596 1.26937 3.08943 1.40615 2.85984 1.8006C2.44218 2.51501 2.18328 3.20622 2.07826 3.88765C1.96713 3.25629 1.94759 2.58462 2.0172 1.86288L2.02209 1.81403C2.02942 1.7432 2.03796 1.66382 2.03552 1.57834C2.02697 1.15457 1.73754 0.839502 1.3321 0.812635C0.905895 0.785768 0.543194 1.08497 0.507779 1.49529L0.489458 1.69069C0.452821 2.09003 0.414964 2.50157 0.428397 2.91557C0.468697 4.14411 0.70805 5.17726 1.15624 6.07607C1.25271 6.26902 1.36385 6.44976 1.47376 6.62562C1.22708 6.68424 0.973062 6.74652 0.721492 6.81491C0.424736 6.89551 0.215899 7.04083 0.101105 7.24477C-0.0185741 7.45726 -0.0320021 7.71494 0.0608102 8.03246C0.307496 8.88853 0.629902 9.53211 1.07442 10.0597C1.2112 10.2221 1.3614 10.3686 1.50917 10.5091C1.15502 10.6764 0.990158 11.0147 1.08663 11.4091C1.36385 12.551 1.85112 13.44 2.57164 14.1178C2.30053 14.2558 2.15031 14.4902 2.14299 14.7772C2.38845 14.7272 2.64369 14.6991 2.90869 14.6991H5.62345C7.29285 14.6991 8.68014 15.9264 8.92683 17.5237H10.4839C11.2887 16.9278 11.8077 16.1609 12.0336 15.2352C11.8919 15.1363 11.7588 15.0251 11.6367 14.9018C11.0334 14.2985 10.7159 13.4498 10.7184 12.4496ZM3.96381 3.49198C5.05435 4.28088 5.38775 5.39708 4.90293 6.62928C4.27767 6.15545 3.93573 5.66574 3.8075 5.07467C3.70126 4.58008 3.7501 4.06961 3.96381 3.49198ZM2.00743 8.29135C3.33123 8.07764 4.3546 8.62963 4.88094 9.84352C3.55348 10.0487 2.53011 9.49669 2.00743 8.29135ZM3.08209 11.8866C4.42299 11.6766 5.50377 12.2627 5.95684 13.4437C4.63671 13.6476 3.63286 13.1029 3.08209 11.8866ZM6.69933 9.29764C6.48073 7.97995 7.03273 6.95535 8.25028 6.42045C8.46644 7.73814 7.91444 8.76274 6.69933 9.29764ZM7.78133 12.9393C7.56029 11.5691 8.09885 10.564 9.3506 10.0072C9.46906 10.5885 9.33349 11.2833 8.97201 11.8927C8.66304 12.413 8.23195 12.7879 7.78133 12.9393ZM8.85722 16.493C8.64229 15.1729 9.19427 14.1495 10.4094 13.6171C10.6207 14.9396 10.0687 15.963 8.85722 16.493Z" fill="url(#paint10_linear_59_2995)"/>
</g>
<defs>
<linearGradient id="paint0_linear_59_2995" x1="16.8939" y1="12.4649" x2="22.6716" y2="12.4649" gradientUnits="userSpaceOnUse">
<stop stop-color="#2B2B65"/>
<stop offset="1" stop-color="#35A7DF"/>
</linearGradient>
<linearGradient id="paint1_linear_59_2995" x1="11.2694" y1="13.8492" x2="19.6876" y2="13.8492" gradientUnits="userSpaceOnUse">
<stop stop-color="#2B2B65"/>
<stop offset="1" stop-color="#35A7DF"/>
</linearGradient>
<linearGradient id="paint2_linear_59_2995" x1="8.42317" y1="18.0758" x2="19.688" y2="18.0758" gradientUnits="userSpaceOnUse">
<stop stop-color="#2B2B65"/>
<stop offset="1" stop-color="#35A7DF"/>
</linearGradient>
<linearGradient id="paint3_linear_59_2995" x1="0.00713554" y1="23.6257" x2="14.0516" y2="23.6257" gradientUnits="userSpaceOnUse">
<stop stop-color="#2B2B65"/>
<stop offset="1" stop-color="#35A7DF"/>
</linearGradient>
<linearGradient id="paint4_linear_59_2995" x1="10.698" y1="6.48852" x2="20.7099" y2="6.48852" gradientUnits="userSpaceOnUse">
<stop stop-color="#2B2B65"/>
<stop offset="1" stop-color="#35A7DF"/>
</linearGradient>
<linearGradient id="paint5_linear_59_2995" x1="16.7955" y1="2.19151" x2="19.0212" y2="2.19151" gradientUnits="userSpaceOnUse">
<stop stop-color="#2B2B65"/>
<stop offset="1" stop-color="#35A7DF"/>
</linearGradient>
<linearGradient id="paint6_linear_59_2995" x1="9.09214" y1="3.1632" x2="11.486" y2="3.1632" gradientUnits="userSpaceOnUse">
<stop stop-color="#2B2B65"/>
<stop offset="1" stop-color="#35A7DF"/>
</linearGradient>
<linearGradient id="paint7_linear_59_2995" x1="12.805" y1="1.69691" x2="14.9054" y2="1.69691" gradientUnits="userSpaceOnUse">
<stop stop-color="#2B2B65"/>
<stop offset="1" stop-color="#35A7DF"/>
</linearGradient>
<linearGradient id="paint8_linear_59_2995" x1="19.984" y1="4.79999" x2="22.5264" y2="4.79999" gradientUnits="userSpaceOnUse">
<stop stop-color="#2B2B65"/>
<stop offset="1" stop-color="#35A7DF"/>
</linearGradient>
<linearGradient id="paint9_linear_59_2995" x1="21.4041" y1="8.4062" x2="24.0423" y2="8.4062" gradientUnits="userSpaceOnUse">
<stop stop-color="#2B2B65"/>
<stop offset="1" stop-color="#35A7DF"/>
</linearGradient>
<linearGradient id="paint10_linear_59_2995" x1="0.00203485" y1="9.12598" x2="12.036" y2="9.12598" gradientUnits="userSpaceOnUse">
<stop stop-color="#2B2B65"/>
<stop offset="1" stop-color="#35A7DF"/>
</linearGradient>
</defs>
</svg>
