<svg width="29" height="32" viewBox="0 0 29 32" fill="none" xmlns="http://www.w3.org/2000/svg">
<path d="M8.4327 13.9188H11.1611C12.2856 13.9188 13.2882 14.4473 13.9333 15.2686C14.0446 15.2458 14.1559 15.223 14.2681 15.2063C14.382 15.1897 14.4206 15.1459 14.3715 15.0372C14.0533 14.3325 13.7799 13.6042 13.4109 12.9276C12.3986 11.0713 11.1619 9.34554 9.79031 7.73814C9.09529 6.92392 8.36696 6.14038 7.61409 5.37962C6.96377 4.72229 5.89538 4.00799 5.44401 3.2446C6.75255 3.72051 8.06196 4.923 9.10142 5.83187C11.8885 8.26839 13.5757 11.2597 15.3531 14.45C15.212 13.5201 14.9403 12.5805 14.6423 11.6839C14.3575 10.8259 14.0157 9.98272 13.8298 9.09838C13.6099 8.05454 13.6213 6.92042 14.1988 5.99051C14.5161 5.47866 14.9815 5.06936 15.3952 4.63464C15.4942 4.53035 15.6003 4.41027 15.5985 4.26654C15.5968 4.16224 15.538 4.06934 15.4793 3.98345C14.4197 2.4409 12.6913 1.74939 10.9288 1.35674C7.9077 0.684504 4.85592 0.449617 1.78398 0.147243C1.48686 0.11832 1.19413 0.0517103 0.88562 0C1.00306 0.227876 1.13278 0.439099 1.22568 0.665222C1.71211 1.84229 2.08547 3.13505 2.29582 4.41816C2.5123 5.74072 2.44043 7.09307 2.69811 8.40774C3.06184 10.2649 3.88657 12.0818 5.31342 13.3632C5.73587 13.7427 6.20126 14.0617 6.69646 14.3255C7.20655 14.0643 7.79552 13.9188 8.4327 13.9188Z" fill="url(#paint0_linear_59_2958)"/>
<path d="M20.9186 8.29275C20.9291 8.25243 20.9396 8.21299 20.9492 8.1718C21.1464 7.35057 21.1718 6.51532 21.1412 5.67218C21.1035 4.64148 21.093 3.47405 21.3533 2.40917C21.3445 2.40654 21.3314 2.39865 21.3261 2.40216C20.1683 3.13574 18.8983 3.63532 17.6468 4.17521C17.0929 4.41448 16.5302 4.64498 16.0078 4.94385C15.29 5.35578 14.7764 5.96228 14.5547 6.78351C14.3864 7.40403 14.4425 8.02193 14.5582 8.64333C14.687 9.33572 14.971 9.95624 15.3671 10.5312C15.3847 10.5566 15.4066 10.5794 15.4381 10.6171C16.3339 8.24279 17.8624 6.31374 19.5636 4.50212C19.5785 4.51089 19.5942 4.51965 19.6091 4.52842C19.5627 4.60291 19.5162 4.67741 19.4698 4.75191C18.6231 6.10164 17.872 7.49869 17.3602 9.0053C17.9632 8.54341 18.7651 8.291 19.724 8.291L20.9186 8.29275Z" fill="url(#paint1_linear_59_2958)"/>
<path d="M25.4672 9.00937H19.8369C18.2777 9.00937 17.0139 10.2732 17.0139 11.8324C17.0139 13.3916 18.2777 14.6554 19.8369 14.6554H25.4672C27.0264 14.6554 28.2903 13.3916 28.2903 11.8324C28.2911 10.2732 27.0264 9.00937 25.4672 9.00937Z" fill="url(#paint2_linear_59_2958)"/>
<path d="M25.3036 11.8245C25.3036 10.6562 24.5901 9.6544 23.5743 9.22757C23.2351 9.08471 22.8819 9.01021 22.4902 9.01021C22.4875 9.01021 19.7232 9.00671 19.7232 9.00671C18.2315 9.00671 16.8362 9.77184 16.831 11.8201C16.8257 13.5607 17.9309 14.6431 19.5769 14.6431H19.6391V17.9868C22.137 20.8186 25.3036 19.0928 25.3036 16.6309V11.828V11.8271C25.3036 11.8245 25.3036 11.8245 25.3036 11.8245Z" fill="url(#paint3_linear_59_2958)"/>
<path d="M18.9973 17.4706H8.33881V23.1219H18.9973C22.4732 23.1219 25.291 20.5916 25.291 17.4706V11.8193C25.291 14.9403 22.4732 17.4706 18.9973 17.4706Z" fill="url(#paint4_linear_59_2958)"/>
<path d="M16.9315 21.3998C17.5452 21.3998 18.0428 20.9022 18.0428 20.2885C18.0428 19.6747 17.5452 19.1771 16.9315 19.1771C16.3177 19.1771 15.8201 19.6747 15.8201 20.2885C15.8201 20.9022 16.3177 21.3998 16.9315 21.3998Z" fill="white"/>
<path d="M13.9698 25.683V19.1824C13.9698 19.1824 13.9663 18.0982 13.9663 17.4322C13.9663 15.8861 12.7095 14.6337 11.1599 14.6337H8.43154C6.88198 14.6337 5.51648 15.7169 5.5121 17.4733C5.50771 19.0834 6.82063 20.1561 8.31497 20.2192V25.6839C8.31497 28.8768 10.847 31.4649 13.9698 31.4649H19.6246C16.5019 31.4641 13.9698 28.8759 13.9698 25.683Z" fill="url(#paint5_linear_59_2958)"/>
<defs>
<linearGradient id="paint0_linear_59_2958" x1="12.1565" y1="17.6511" x2="7.31264" y2="-0.5133" gradientUnits="userSpaceOnUse">
<stop stop-color="#006633"/>
<stop offset="0.0361" stop-color="#0B6D31"/>
<stop offset="0.1864" stop-color="#34862C"/>
<stop offset="0.3405" stop-color="#569A27"/>
<stop offset="0.4969" stop-color="#70AB24"/>
<stop offset="0.6566" stop-color="#83B621"/>
<stop offset="0.8215" stop-color="#8EBD20"/>
<stop offset="1" stop-color="#92BF1F"/>
</linearGradient>
<linearGradient id="paint1_linear_59_2958" x1="20.5832" y1="15.4038" x2="15.7394" y2="-2.76061" gradientUnits="userSpaceOnUse">
<stop stop-color="#006633"/>
<stop offset="0.0361" stop-color="#0B6D31"/>
<stop offset="0.1864" stop-color="#34862C"/>
<stop offset="0.3405" stop-color="#569A27"/>
<stop offset="0.4969" stop-color="#70AB24"/>
<stop offset="0.6566" stop-color="#83B621"/>
<stop offset="0.8215" stop-color="#8EBD20"/>
<stop offset="1" stop-color="#92BF1F"/>
</linearGradient>
<linearGradient id="paint2_linear_59_2958" x1="17.0141" y1="11.8329" x2="28.2908" y2="11.8329" gradientUnits="userSpaceOnUse">
<stop stop-color="#2B2B65"/>
<stop offset="1" stop-color="#35A7DF"/>
</linearGradient>
<linearGradient id="paint3_linear_59_2958" x1="16.8314" y1="14.2284" x2="25.304" y2="14.2284" gradientUnits="userSpaceOnUse">
<stop stop-color="#2B2B65"/>
<stop offset="1" stop-color="#1D70B6"/>
</linearGradient>
<linearGradient id="paint4_linear_59_2958" x1="8.33839" y1="17.4709" x2="25.2906" y2="17.4709" gradientUnits="userSpaceOnUse">
<stop stop-color="#2B2B65"/>
<stop offset="1" stop-color="#35A7DF"/>
</linearGradient>
<linearGradient id="paint5_linear_59_2958" x1="12.5689" y1="28.7737" x2="12.5689" y2="15.5578" gradientUnits="userSpaceOnUse">
<stop stop-color="#006633"/>
<stop offset="1" stop-color="#92BF1F"/>
</linearGradient>
</defs>
</svg>
