<?xml version="1.0" encoding="UTF-8"?>
<svg id="Capa_1" data-name="Capa 1" xmlns="http://www.w3.org/2000/svg" xmlns:xlink="http://www.w3.org/1999/xlink" viewBox="0 0 25 34">
  <defs>
    <style>
      .cls-1 {
        opacity: .7;
      }

      .cls-2 {
        fill: url(#Degradado_sin_nombre_7-5);
      }

      .cls-2, .cls-3, .cls-4, .cls-5, .cls-6, .cls-7, .cls-8 {
        stroke-width: 0px;
      }

      .cls-3 {
        fill: url(#Degradado_sin_nombre_7-3);
      }

      .cls-4 {
        fill: url(#Degradado_sin_nombre_7-2);
      }

      .cls-5 {
        fill: url(#Degradado_sin_nombre_7-4);
      }

      .cls-6 {
        fill: url(#Degradado_sin_nombre_7-6);
      }

      .cls-7 {
        fill: #fff;
      }

      .cls-8 {
        fill: url(#Degradado_sin_nombre_7);
      }
    </style>
    <linearGradient id="Degradado_sin_nombre_7" data-name="Degradado sin nombre 7" x1="12.66" y1="20.37" x2="23.97" y2="20.37" gradientTransform="translate(0 34.79) scale(1 -1)" gradientUnits="userSpaceOnUse">
      <stop offset="0" stop-color="#2b2b65"/>
      <stop offset="1" stop-color="#35a7df"/>
    </linearGradient>
    <linearGradient id="Degradado_sin_nombre_7-2" data-name="Degradado sin nombre 7" x1="12.49" y1="17.97" x2="20.98" y2="17.97" xlink:href="#Degradado_sin_nombre_7"/>
    <linearGradient id="Degradado_sin_nombre_7-3" data-name="Degradado sin nombre 7" x1="3.98" y1="14.74" x2="20.96" y2="14.74" xlink:href="#Degradado_sin_nombre_7"/>
    <linearGradient id="Degradado_sin_nombre_7-4" data-name="Degradado sin nombre 7" x1="8.17" y1="3.43" x2="8.17" y2="16.67" xlink:href="#Degradado_sin_nombre_7"/>
    <linearGradient id="Degradado_sin_nombre_7-5" data-name="Degradado sin nombre 7" x1="12.82" y1="20.2" x2="8.57" y2="25.53" xlink:href="#Degradado_sin_nombre_7"/>
    <linearGradient id="Degradado_sin_nombre_7-6" data-name="Degradado sin nombre 7" x1="10.32" y1="18.21" x2="2.45" y2="28.07" xlink:href="#Degradado_sin_nombre_7"/>
  </defs>
  <g class="cls-1">
    <path class="cls-8" d="m21.12,11.59h-5.64c-1.57,0-2.82,1.24-2.82,2.82s1.25,2.82,2.82,2.82h5.64c1.57,0,2.82-1.24,2.82-2.82s-1.25-2.82-2.82-2.82Z"/>
    <path class="cls-4" d="m20.99,14.41c0-1.18-.72-2.16-1.7-2.62-.33-.13-.72-.2-1.11-.2h-2.75c-1.51,0-2.89.79-2.89,2.82,0,1.77,1.11,2.82,2.75,2.82h.07v3.34c2.49,2.82,5.7,1.11,5.7-1.38l-.07-4.78Z"/>
    <path class="cls-3" d="m14.63,20.04H3.94v5.63h10.69c3.48,0,6.29-2.55,6.29-5.63v-5.63c.07,3.08-2.75,5.63-6.29,5.63Z"/>
    <path class="cls-7" d="m12.6,23.98c.59,0,1.11-.52,1.11-1.11s-.52-1.11-1.11-1.11-1.11.52-1.11,1.11.46,1.11,1.11,1.11Z"/>
    <path class="cls-5" d="m9.65,28.23v-8.25c0-1.57-1.25-2.82-2.82-2.82h-2.75c-1.57,0-2.95,1.11-2.95,2.82s1.31,2.69,2.82,2.75v5.5c0,3.21,2.56,5.76,5.64,5.76h5.64c-3.08.07-5.57-2.55-5.57-5.76Z"/>
    <path class="cls-2" d="m18.57,7.27c0-.52-.26-.72-.72-.72h-2.56c-.46,0-.72.26-.72.72v.66h-1.51v-.59c0-.59-.2-.85-.85-.85l-1.64.07h-1.44v-1.38l.26-.26c.2-.2.39-.46.66-.66.2-.2.33-.33.52-.52.13-.13.26-.26.46-.46.39-.39.39-.72,0-1.05-.72-.72-1.31-1.31-1.97-1.97-.07-.07-.13-.13-.26-.2L8.73,0h-.33Q8.34,0,8.27.07c-.07,0-.07.07-.13.07-.07.07-.2.13-.26.26-.66.66-1.18,1.18-1.64,1.64-.07.07-.13.13-.26.13H1.91c-.59,0-.85.2-.85.85v11.27c0,.59.2.79.79.79h2.23l-.07.07c-.13.13-.2.26-.2.46v.07h2.62c.2,0,.39,0,.52.07h.33l-.2-.13c-.33-.2-.52-.39-.66-.72-.26-.59,0-1.18.59-1.57,1.05-.59,2.1-.59,3.08,0,.2.13.39.26.52.46l.07.13v-.13c0-.46.13-.92.33-1.31v-.07c-.52-.33-1.11-.59-1.77-.72h-.07v-1.05h3.15c.52,0,.79-.26.79-.79v-.59h1.51v.59c0,.52.26.72.79.72h.66v.13h1.31v-.13h.59c.52,0,.79-.26.79-.72-.2-.92-.2-1.77-.2-2.55Zm-1.25.59v1.44h-1.44v-1.44h1.44ZM7.35,2.75c.2-.2.39-.39.59-.59.13-.13.33-.33.46-.46l.07-.07,1.18,1.18-1.11,1.11-.26-.26c-.33-.26-.59-.59-.92-.92Zm-3.34,10.94l.07.07h-1.77V3.41h3.8s.07,0,.07.07c.52.46,1.05,1.05,1.64,1.64l.07.07v1.38h-3.15c-.52,0-.79.26-.79.79v2.49c0,.52.26.79.79.79h3.15v1.11c-.59.07-1.05.26-1.44.52-.46.2-.85.52-1.11.98-.13-.13-.26-.26-.39-.39-.26-.26-.66-.33-.92-.07-.33.26-.33.59,0,.92Zm1.25-4.45v-1.44h6.49v1.38h-6.49c.07.13,0,.13,0,.07Z"/>
    <path class="cls-6" d="m10.76,14.87v-.13l-.07.13c-.07.2-.26.39-.39.52-.46.39-.98.52-1.7.59h-.46l-.26-.07.26.13c.46.26.92.66,1.18,1.11h.26c.72-.2,1.31-.52,1.77-.98-.33-.46-.52-.85-.59-1.31Z"/>
  </g>
</svg>