<svg width="26" height="32" viewBox="0 0 26 32" fill="none" xmlns="http://www.w3.org/2000/svg">
<g opacity="0.7">
<path d="M23.0667 11.399H20.3303C20.6879 11.399 21.0107 11.4673 21.3198 11.5989C22.251 11.9912 22.9041 12.9099 22.9041 13.9814V13.9826V13.9839V16.58H23.0667C24.497 16.58 25.6566 15.4204 25.6566 13.9901C25.6578 12.5586 24.4982 11.399 23.0667 11.399Z" fill="url(#paint0_linear_59_2945)"/>
<path d="M17.6586 16.5663H17.7157V19.1351C20.6284 18.8718 22.9029 16.6644 22.9041 13.9789C22.9029 12.9087 22.2498 11.9899 21.3199 11.5976C21.0095 11.466 20.6855 11.3977 20.3267 11.3977C20.3242 11.3977 17.7927 11.3952 17.7927 11.3952C16.4257 11.3952 15.1482 12.0967 15.1432 13.9764C15.1395 15.5743 16.1513 16.5663 17.6586 16.5663Z" fill="url(#paint1_linear_59_2945)"/>
<path d="M17.1309 19.1624H12.5185V24.3471H17.1309C20.3192 24.3471 22.9053 22.0254 22.9053 19.1624V13.9777C22.9041 16.8407 20.3192 19.1624 17.1309 19.1624ZM15.235 22.7666C14.6713 22.7666 14.2145 22.3097 14.2145 21.746C14.2145 21.1824 14.6713 20.7255 15.235 20.7255C15.7987 20.7255 16.2556 21.1824 16.2556 21.746C16.2556 22.3097 15.7987 22.7666 15.235 22.7666Z" fill="url(#paint2_linear_59_2945)"/>
<path d="M12.5185 26.6961V20.7317C12.5185 20.7317 12.516 19.7372 12.516 19.1251C12.516 17.7073 11.3626 16.5576 9.94103 16.5576H7.43806C6.01649 16.5576 4.76376 17.5509 4.7588 19.1636C4.75507 20.6411 5.95938 21.6256 7.33005 21.6827V26.6961C7.33005 29.6249 9.65299 32 12.5185 32H17.7069C14.8414 32 12.5185 29.6249 12.5185 26.6961Z" fill="url(#paint3_linear_59_2945)"/>
<path d="M17.4823 3.54865C18.7437 3.21839 19.6786 3.81558 20.0784 4.14831L16.8205 0.704254C16.4021 0.262262 15.8223 0.00774479 15.214 0.000295496C14.6056 -0.0096369 14.0196 0.231224 13.59 0.662042L0.656782 13.6362C-0.220993 14.5165 -0.218509 15.943 0.66175 16.8208C1.10126 17.2591 1.6761 17.4776 2.25217 17.4776C2.8295 17.4776 3.40682 17.2566 3.84757 16.8158L15.1444 5.48422L15.1482 5.48795C16.71 3.643 17.4823 3.54865 17.4823 3.54865Z" fill="url(#paint4_linear_59_2945)"/>
<path d="M21.0778 5.20487L20.0783 4.14831C19.6773 3.81557 18.7424 3.21839 17.4822 3.54864C17.4822 3.54864 16.7112 3.643 15.1456 5.4867L17.8063 8.29881C18.6605 9.20266 20.0858 9.24239 20.9896 8.38696C21.8922 7.53277 21.9319 6.10747 21.0778 5.20487Z" fill="url(#paint5_linear_59_2945)"/>
</g>
<defs>
<linearGradient id="paint0_linear_59_2945" x1="20.3312" y1="13.9895" x2="25.6576" y2="13.9895" gradientUnits="userSpaceOnUse">
<stop stop-color="#2B2B65"/>
<stop offset="1" stop-color="#35A7DF"/>
</linearGradient>
<linearGradient id="paint1_linear_59_2945" x1="15.1445" y1="15.2652" x2="22.9057" y2="15.2652" gradientUnits="userSpaceOnUse">
<stop stop-color="#2B2B65"/>
<stop offset="1" stop-color="#35A7DF"/>
</linearGradient>
<linearGradient id="paint2_linear_59_2945" x1="12.5203" y1="19.1625" x2="22.9074" y2="19.1625" gradientUnits="userSpaceOnUse">
<stop stop-color="#2B2B65"/>
<stop offset="1" stop-color="#35A7DF"/>
</linearGradient>
<linearGradient id="paint3_linear_59_2945" x1="4.76098" y1="24.2789" x2="17.7095" y2="24.2789" gradientUnits="userSpaceOnUse">
<stop stop-color="#2B2B65"/>
<stop offset="1" stop-color="#35A7DF"/>
</linearGradient>
<linearGradient id="paint4_linear_59_2945" x1="0.0033952" y1="8.73895" x2="20.0824" y2="8.73895" gradientUnits="userSpaceOnUse">
<stop stop-color="#2B2B65"/>
<stop offset="1" stop-color="#35A7DF"/>
</linearGradient>
<linearGradient id="paint5_linear_59_2945" x1="15.1467" y1="6.22789" x2="21.6947" y2="6.22789" gradientUnits="userSpaceOnUse">
<stop stop-color="#2B2B65"/>
<stop offset="1" stop-color="#35A7DF"/>
</linearGradient>
</defs>
</svg>
