<svg width="136" height="45" viewBox="0 0 136 45" fill="none" xmlns="http://www.w3.org/2000/svg">
<path d="M38.9166 0.601471H33.0994C33.8581 0.601471 34.5453 0.748252 35.2039 1.02511C37.1831 1.85927 38.5718 3.81279 38.5718 6.0921C38.5718 6.0921 38.5718 6.09329 38.5718 6.09448C38.5718 6.09568 38.5718 6.09568 38.5718 6.09687V11.6173H38.9166C41.9576 11.6173 44.4224 9.15186 44.4224 6.11C44.4224 3.06813 41.9576 0.602665 38.9166 0.602665V0.601471Z" fill="url(#paint0_linear_26_5429)"/>
<path d="M27.4204 11.5898H27.5421V17.0505C33.7339 16.4909 38.568 11.7962 38.5716 6.08838C38.5704 3.81146 37.1817 1.85913 35.2037 1.02617C34.544 0.748115 33.8544 0.601333 33.0932 0.601333C33.0873 0.601333 27.7055 0.595367 27.7055 0.595367C24.8005 0.595367 22.084 2.08706 22.0733 6.08361C22.0637 9.4799 24.2148 11.5909 27.4204 11.5909V11.5898Z" fill="url(#paint1_linear_26_5429)"/>
<path d="M26.2967 17.1077H16.4937V28.1319H26.2967C33.0755 28.1319 38.5706 23.1962 38.5706 17.1077V6.0835C38.5706 12.172 33.0755 17.1077 26.2967 17.1077ZM22.2691 24.7726C21.0713 24.7726 20.1014 23.8012 20.1014 22.6043C20.1014 21.4074 21.0725 20.436 22.2691 20.436C23.4657 20.436 24.4368 21.4074 24.4368 22.6043C24.4368 23.8012 23.4657 24.7726 22.2691 24.7726Z" fill="url(#paint2_linear_26_5429)"/>
<path d="M16.4936 33.1275V20.4457C16.4936 20.4457 16.4876 18.331 16.4876 17.0315C16.4876 14.0159 14.0371 11.5719 11.014 11.5719H5.69432C2.6712 11.5719 0.00956457 13.6841 2.03735e-05 17.1114C-0.0083308 20.2523 2.5519 22.3455 5.46526 22.4672V33.1275C5.46526 39.3556 10.4032 44.4047 16.4936 44.4047H27.5219C21.4315 44.4047 16.4936 39.3556 16.4936 33.1275Z" fill="url(#paint3_linear_26_5429)"/>
<path d="M70.9086 22.5065C70.1165 21.8812 68.9258 21.3811 67.3379 21.0076L63.7147 20.1532C62.3165 19.8262 61.4026 19.5422 60.972 19.2987C60.3015 18.9348 59.9662 18.3834 59.9662 17.6459C59.9662 16.8428 60.3062 16.2175 60.9851 15.7688C61.6651 15.3201 62.5742 15.0969 63.7135 15.0969C64.7371 15.0969 65.5937 15.27 66.2833 15.6149C67.3176 16.1375 67.8724 17.0206 67.9488 18.2629H72.0945C72.0194 16.0683 71.2033 14.394 69.6488 13.2401C68.0943 12.0873 66.2153 11.5097 64.013 11.5097C61.3764 11.5097 59.3769 12.1219 58.0156 13.3451C56.6544 14.5683 55.9744 16.1053 55.9744 17.9538C55.9744 19.9801 56.6699 21.4706 58.061 22.4229C58.883 22.9922 60.3909 23.5208 62.5885 24.0053L64.823 24.4958C66.1318 24.7762 67.0862 25.0985 67.6899 25.4624C68.2923 25.8359 68.593 26.3634 68.593 27.0448C68.593 28.2119 67.9786 29.0103 66.7486 29.4399C66.1008 29.6642 65.2561 29.7764 64.217 29.7764C62.4823 29.7764 61.2571 29.3516 60.5413 28.5019C60.15 28.0353 59.8887 27.33 59.7551 26.3861H55.6379C55.6379 28.5341 56.4158 30.2227 57.9739 31.4507C59.5308 32.6786 61.6687 33.2932 64.3864 33.2932C67.1041 33.2932 69.1072 32.6703 70.5651 31.4232C72.0229 30.1762 72.7519 28.6105 72.7519 26.7226C72.7519 24.8347 72.1363 23.4779 70.9063 22.5053L70.9086 22.5065Z" fill="#575756"/>
<path d="M90.7295 13.153C89.4792 12.0575 87.8031 11.5097 85.6998 11.5097H76.5779V32.761H80.9885V25.1199H85.4122C87.7207 25.1199 89.4972 24.6008 90.7403 23.5626C91.9846 22.5244 92.6062 20.7511 92.6062 18.2426C92.6062 15.9454 91.981 14.2485 90.7307 13.153H90.7295ZM87.3509 20.6938C86.789 21.2033 86.0016 21.4575 84.9887 21.4575H80.9885V15.1996H84.9887C86.0016 15.1996 86.789 15.4347 87.3509 15.906C87.9128 16.3774 88.1944 17.165 88.1944 18.2701C88.1944 19.3751 87.9128 20.183 87.3509 20.6926V20.6938Z" fill="#575756"/>
<path d="M135.596 18.0982C135.326 16.8679 134.821 15.7246 134.082 14.6673C133.158 13.3606 131.951 12.4608 130.461 11.9715C129.585 11.6827 128.49 11.53 127.172 11.5097H118.012V32.761H127.172C130.383 32.761 132.759 31.4399 134.298 28.7967C135.432 26.836 136 24.4421 136 21.6162C136 20.5016 135.865 19.3286 135.596 18.0982ZM130.809 25.9708C129.981 28.0377 128.519 29.0711 126.42 29.0711H122.32V15.2008H126.42C128.441 15.2008 129.79 15.7795 130.469 16.9383C131.148 18.097 131.487 19.757 131.487 21.9194C131.487 23.4862 131.26 24.8371 130.808 25.9708H130.809Z" fill="#575756"/>
<path d="M101.536 11.5752L93.9519 32.8265H98.5952L100.035 28.4576H107.859L109.261 32.8265H114.075L106.557 11.5752H101.535H101.536ZM101.84 24.7964L104.597 16.4346L107.282 24.7964H101.84Z" fill="#575756"/>
<defs>
<linearGradient id="paint0_linear_26_5429" x1="33.0994" y1="6.11" x2="44.4224" y2="6.11" gradientUnits="userSpaceOnUse">
<stop stop-color="#2B2B65"/>
<stop offset="1" stop-color="#35A7DF"/>
</linearGradient>
<linearGradient id="paint1_linear_26_5429" x1="22.0733" y1="8.82236" x2="38.5704" y2="8.82236" gradientUnits="userSpaceOnUse">
<stop stop-color="#2B2B65"/>
<stop offset="1" stop-color="#1D70B6"/>
</linearGradient>
<linearGradient id="paint2_linear_26_5429" x1="16.4937" y1="17.1077" x2="38.5706" y2="17.1077" gradientUnits="userSpaceOnUse">
<stop stop-color="#2E4B82"/>
<stop offset="0.25" stop-color="#30669E"/>
<stop offset="0.73" stop-color="#35A7DF"/>
</linearGradient>
<linearGradient id="paint3_linear_26_5429" x1="13.7616" y1="39.1563" x2="13.7616" y2="13.375" gradientUnits="userSpaceOnUse">
<stop stop-color="#006633"/>
<stop offset="1" stop-color="#92BF1F"/>
</linearGradient>
</defs>
</svg>
